<svg width="213" height="48" viewBox="0 0 213 48" fill="none" xmlns="http://www.w3.org/2000/svg">
<path d="M49.3563 0H0V48H49.3563V0Z" fill="white"/>
<path d="M71.9659 31.5996C72.1697 32.4841 72.6 33.1759 73.2581 33.6735C73.9146 34.1727 74.7205 34.4215 75.6724 34.4215C76.6243 34.4215 77.4173 34.184 78.053 33.7072C78.687 33.2305 79.0049 32.6414 79.0049 31.9383C79.0049 31.3717 78.7673 30.8837 78.2905 30.476C77.7014 29.9784 76.6243 29.4214 75.0608 28.8098C71.3431 27.3812 69.4842 25.3297 69.4842 22.6555C69.4842 21.1819 70.0556 19.9299 71.2018 18.8977C72.3463 17.8672 73.7349 17.3503 75.3674 17.3503C77.0224 17.3503 78.3997 17.8094 79.4993 18.7276C80.5989 19.6458 81.2281 20.8416 81.387 22.3152L78.565 22.9605C78.4511 22.2125 78.1172 21.6009 77.5618 21.1241C77.0063 20.6474 76.3209 20.4098 75.5038 20.4098C74.7558 20.4098 74.1201 20.6362 73.6 21.0904C73.0783 21.5447 72.8183 22.1001 72.8183 22.7566C72.8183 23.4372 73.0221 23.9814 73.4299 24.3891C73.9275 24.8883 74.9372 25.4549 76.4557 26.089C78.3146 26.7921 79.7657 27.5915 80.8075 28.4855C81.8493 29.3812 82.371 30.5883 82.371 32.1069C82.371 33.6254 81.7306 34.9015 80.4496 35.932C79.1686 36.9642 77.5987 37.4794 75.7398 37.4794C74.0399 37.4794 72.5486 36.9915 71.2676 36.0171C69.9866 35.0428 69.245 33.7843 69.0411 32.2433L71.9659 31.5996Z" fill="white"/>
<path d="M85.2599 37.0397V17.7935H112.701V37.0397H109.335V20.991H100.664V37.0397H97.2976V20.991H88.6261V37.0397H85.2599Z" fill="white"/>
<path d="M116.989 37.0397V17.7935H120.356V37.0397H116.989Z" fill="white"/>
<path d="M126.642 20.243C128.591 18.3168 131.005 17.3521 133.885 17.3521C136.855 17.3521 139.303 18.4404 141.23 20.617L139.871 23.6091C138.352 21.5914 136.379 20.5833 133.954 20.5833C132.004 20.5833 130.361 21.2414 129.023 22.5561C127.685 23.8707 127.016 25.5032 127.016 27.4519C127.016 29.3781 127.684 30.9946 129.023 32.298C130.36 33.6014 132.004 34.2531 133.954 34.2531C136.402 34.2531 138.375 33.245 139.871 31.2273L141.23 34.2194C139.304 36.396 136.855 37.4843 133.885 37.4843C131.005 37.4843 128.586 36.5148 126.624 34.5773C124.663 32.6399 123.684 30.253 123.684 27.4198C123.684 24.5834 124.669 22.1933 126.642 20.243Z" fill="white"/>
<path d="M145.785 20.2767C147.734 18.328 150.126 17.3521 152.96 17.3521C155.794 17.3521 158.192 18.3264 160.152 20.2767C162.112 22.227 163.093 24.6059 163.093 27.4166C163.093 30.2273 162.118 32.6078 160.168 34.5565C158.195 36.5068 155.792 37.4811 152.959 37.4811C150.126 37.4811 147.727 36.5068 145.767 34.5565C143.806 32.6078 142.827 30.2273 142.827 27.4166C142.827 24.6075 143.812 22.227 145.785 20.2767ZM146.193 27.4182C146.193 29.322 146.844 30.9368 148.148 32.2643C149.451 33.5902 151.055 34.2531 152.959 34.2531C154.84 34.2531 156.439 33.5902 157.754 32.2643C159.068 30.9384 159.726 29.3236 159.726 27.4182C159.726 25.5144 159.068 23.8996 157.754 22.5721C156.439 21.2462 154.84 20.5833 152.959 20.5833C151.055 20.5833 149.451 21.2462 148.148 22.5721C146.844 23.898 146.193 25.5128 146.193 27.4182Z" fill="white"/>
<path d="M166.396 37.0398V10.5188H169.762V37.0398H166.396Z" fill="white"/>
<path d="M176.048 20.2767C177.997 18.328 180.389 17.3521 183.224 17.3521C186.057 17.3521 188.455 18.3264 190.415 20.2767C192.375 22.227 193.356 24.6059 193.356 27.4166C193.356 30.2273 192.382 32.6078 190.431 34.5565C188.459 36.5068 186.055 37.4811 183.222 37.4811C180.389 37.4811 177.991 36.5068 176.031 34.5565C174.069 32.6078 173.09 30.2273 173.09 27.4166C173.09 24.6075 174.077 22.227 176.048 20.2767ZM176.458 27.4182C176.458 29.322 177.109 30.9368 178.413 32.2643C179.716 33.5902 181.32 34.2531 183.224 34.2531C185.105 34.2531 186.704 33.5902 188.019 32.2643C189.333 30.9384 189.992 29.3236 189.992 27.4182C189.992 25.5144 189.333 23.8996 188.019 22.5721C186.704 21.2462 185.105 20.5833 183.224 20.5833C181.32 20.5833 179.716 21.2462 178.413 22.5721C177.108 23.898 176.458 25.5128 176.458 27.4182Z" fill="white"/>
<path d="M196.655 37.0397V17.7935H212.364V37.0397H208.998V20.991H200.021V37.0397H196.655Z" fill="white"/>
<path d="M15.2665 7.80444V11.079H10.7671V36.9194H15.2665V40.194H7.3479V7.80444H15.2665Z" fill="black"/>
<path d="M38.5492 36.9211V11.0807H34.0867V7.80615H42.0053V40.1973H34.0867V36.9227H38.5492V36.9211Z" fill="black"/>
<path d="M27.6108 12.4626H21.7421V18.3312H27.6108V12.4626Z" fill="black"/>
<path d="M27.6107 29.6703L21.7419 35.5372V23.7439H27.6107V29.6703Z" fill="black"/>
</svg>
