<svg width="178" height="40" viewBox="0 0 178 40" fill="none" xmlns="http://www.w3.org/2000/svg">
<path d="M41.3698 0H0V40H41.3698V0Z" fill="black"/>
<path d="M60.3226 26.3329C60.4935 27.0699 60.854 27.6465 61.4057 28.0611C61.956 28.4772 62.6314 28.6845 63.4293 28.6845C64.2272 28.6845 64.8919 28.4865 65.4247 28.0892C65.9562 27.692 66.2226 27.201 66.2226 26.6151C66.2226 26.1429 66.0234 25.7363 65.6238 25.3965C65.13 24.9819 64.2272 24.5177 62.9167 24.008C59.8005 22.8175 58.2425 21.108 58.2425 18.8795C58.2425 17.6515 58.7214 16.6081 59.6821 15.748C60.6415 14.8892 61.8053 14.4585 63.1737 14.4585C64.5609 14.4585 65.7153 14.8411 66.637 15.6062C67.5586 16.3714 68.0861 17.3679 68.2193 18.5959L65.8539 19.1336C65.7584 18.5103 65.4785 18.0006 65.013 17.6033C64.5474 17.206 63.9729 17.0081 63.288 17.0081C62.661 17.0081 62.1282 17.1967 61.6923 17.5752C61.255 17.9538 61.037 18.4166 61.037 18.9637C61.037 19.5309 61.2079 19.9844 61.5497 20.3241C61.9668 20.7401 62.8131 21.2123 64.0859 21.7407C65.644 22.3266 66.8603 22.9928 67.7335 23.7378C68.6068 24.4842 69.044 25.4902 69.044 26.7556C69.044 28.021 68.5072 29.0845 67.4335 29.9432C66.3598 30.8033 65.0439 31.2327 63.4858 31.2327C62.0609 31.2327 60.811 30.8261 59.7373 30.0141C58.6636 29.2022 58.042 28.1534 57.8711 26.8693L60.3226 26.3329Z" fill="black"/>
<path d="M71.4648 30.8667V14.8281H94.466V30.8667H91.6445V17.4927H84.3762V30.8667H81.5547V17.4927H74.2863V30.8667H71.4648Z" fill="black"/>
<path d="M98.0625 30.8667V14.8281H100.884V30.8667H98.0625Z" fill="black"/>
<path d="M106.152 16.8691C107.785 15.2639 109.809 14.46 112.222 14.46C114.712 14.46 116.763 15.3669 118.379 17.1808L117.24 19.6742C115.967 17.9927 114.313 17.1527 112.28 17.1527C110.646 17.1527 109.269 17.7011 108.147 18.7966C107.026 19.8922 106.465 21.2526 106.465 22.8765C106.465 24.4817 107.025 25.8287 108.147 26.9149C109.268 28.0011 110.646 28.5442 112.28 28.5442C114.332 28.5442 115.986 27.7041 117.24 26.0227L118.379 28.5161C116.765 30.3299 114.712 31.2369 112.222 31.2369C109.809 31.2369 107.781 30.4289 106.137 28.8144C104.493 27.1998 103.672 25.2107 103.672 22.8498C103.672 20.4861 104.498 18.4943 106.152 16.8691Z" fill="black"/>
<path d="M122.198 16.8972C123.832 15.2733 125.837 14.46 128.213 14.46C130.588 14.46 132.598 15.2719 134.241 16.8972C135.883 18.5224 136.706 20.5048 136.706 22.8471C136.706 25.1893 135.889 27.1731 134.254 28.797C132.6 30.4222 130.586 31.2342 128.211 31.2342C125.837 31.2342 123.827 30.4222 122.184 28.797C120.539 27.1731 119.719 25.1893 119.719 22.8471C119.719 20.5062 120.545 18.5224 122.198 16.8972ZM122.54 22.8484C122.54 24.4349 123.086 25.7806 124.179 26.8868C125.272 27.9917 126.616 28.5442 128.211 28.5442C129.788 28.5442 131.129 27.9917 132.23 26.8868C133.332 25.7819 133.884 24.4362 133.884 22.8484C133.884 21.262 133.332 19.9163 132.23 18.81C131.129 17.7051 129.788 17.1527 128.211 17.1527C126.616 17.1527 125.272 17.7051 124.179 18.81C123.086 19.9149 122.54 21.2606 122.54 22.8484Z" fill="black"/>
<path d="M139.473 30.8664V8.76562H142.294V30.8664H139.473Z" fill="black"/>
<path d="M147.562 16.8972C149.195 15.2733 151.2 14.46 153.576 14.46C155.951 14.46 157.961 15.2719 159.604 16.8972C161.247 18.5224 162.069 20.5048 162.069 22.8471C162.069 25.1893 161.252 27.1731 159.617 28.797C157.964 30.4222 155.95 31.2342 153.575 31.2342C151.2 31.2342 149.19 30.4222 147.547 28.797C145.903 27.1731 145.082 25.1893 145.082 22.8471C145.082 20.5062 145.91 18.5224 147.562 16.8972ZM147.905 22.8484C147.905 24.4349 148.451 25.7806 149.544 26.8868C150.636 27.9917 151.98 28.5442 153.576 28.5442C155.153 28.5442 156.493 27.9917 157.595 26.8868C158.697 25.7819 159.249 24.4362 159.249 22.8484C159.249 21.262 158.697 19.9163 157.595 18.81C156.493 17.7051 155.153 17.1527 153.576 17.1527C151.98 17.1527 150.636 17.7051 149.544 18.81C148.45 19.9149 147.905 21.2606 147.905 22.8484Z" fill="black"/>
<path d="M164.836 30.8667V14.8281H178.003V30.8667H175.181V17.4927H167.657V30.8667H164.836Z" fill="black"/>
<path d="M12.7975 6.50391V9.23273H9.02605V30.7664H12.7975V33.4952H6.16016V6.50391H12.7975Z" fill="white"/>
<path d="M32.3108 30.7678V9.23419H28.5703V6.50537H35.2076V33.498H28.5703V30.7692H32.3108V30.7678Z" fill="white"/>
<path d="M23.1418 10.3857H18.2227V15.2762H23.1418V10.3857Z" fill="white"/>
<path d="M23.1418 24.7253L18.2227 29.6144V19.7866H23.1418V24.7253Z" fill="white"/>
</svg>
